<svg width="84" height="417" viewBox="0 0 84 417" fill="none" xmlns="http://www.w3.org/2000/svg">
<path d="M55.5002 154.5C62.7002 94.1 21.5002 37 0.000175476 16V397.5C72.8002 376.3 82.6909 324.784 63.0002 295.5C31.8002 249.1 48.3002 214.9 55.5002 154.5Z" fill="#36D6AD"/>
<path d="M0.000175476 1C29.1668 29.5 84.3002 100.1 71.5002 154.5C58.7002 208.9 44.3002 242.1 71.5002 286.5C94.7795 324.5 86.8002 392.8 0.000175476 416M0.000175476 16C21.5002 37 62.7002 94.1 55.5002 154.5C48.3002 214.9 31.8002 249.1 63.0002 295.5C82.6909 324.784 72.8002 376.3 0.000175476 397.5V16Z" stroke="#36D6AD" stroke-width="2"/>
</svg>
